# xmcd
#
# Track frame offsets: 
#        150
#        32037
#        64697
#        92112
#        113935
#        137887
#        157367
#        184727
#        206315
#        241459
#        273435
#        287482
#
# Disc length: 4255 seconds
#
# Revision: 1
# Processed by: cddbd v1.5.2PL0 Copyright (c) Steve Scherf et al.
# Submitted via: ExactAudioCopy v0.99pb3
#
DISCID=b2109d0c
DTITLE=Various Artist - Chinese Rhythm
DYEAR=1996
DGENRE=Folk
TTITLE0=马车在田野上奔驰
TTITLE1=彝族舞曲
TTITLE2=二泉映月
TTITLE3=江南好
TTITLE4=龙船
TTITLE5=瑞丽江边
TTITLE6=高山流水
TTITLE7=彩云追月
TTITLE8=春天来了
TTITLE9=草原上
TTITLE10=京调
TTITLE11=百鸟朝凤
EXTD=
EXTT0=
EXTT1=
EXTT2=
EXTT3=
EXTT4=
EXTT5=
EXTT6=
EXTT7=
EXTT8=
EXTT9=
EXTT10=
EXTT11=
PLAYORDER=
